<svg version="1.2" xmlns="http://www.w3.org/2000/svg" viewBox="0 0 53 40" width="53" height="40"><path class="a" d="m16.6 32.7c0.4-0.4 0.4-0.9 0-1.3l-11.3-11.4 11.3-11.4c0.4-0.4 0.4-0.9 0-1.3l-1.4-1.5c-0.4-0.4-1-0.4-1.4 0l-13.4 13.5c-0.4 0.4-0.4 1 0 1.4l13.4 13.5c0.4 0.4 1 0.4 1.4 0zm17-31c0.2-0.4-0.1-1-0.6-1.1l-1.8-0.5c-0.5-0.2-1 0.1-1.1 0.6l-10.8 37.5c-0.1 0.4 0.1 1 0.6 1.1l1.8 0.5c0.5 0.1 1-0.1 1.1-0.6zm19 18.8c0.4-0.3 0.4-0.9 0-1.3l-13.4-13.5c-0.4-0.4-1-0.4-1.4 0l-1.4 1.4c-0.4 0.4-0.4 1 0 1.4l11.3 11.4-11.3 11.4c-0.4 0.3-0.4 0.9 0 1.3l1.4 1.4c0.4 0.4 1 0.4 1.4 0z"/></svg>