<svg version="1.2" xmlns="http://www.w3.org/2000/svg" viewBox="0 0 15 11" width="15" height="11"><style>.a{fill:#555}</style><path class="a" d="m13.9 9.7c0 0.2-0.1 0.3-0.2 0.3h-12.4c-0.1 0-0.2-0.1-0.2-0.3v-6q0.2 0.3 0.5 0.6 1.9 1.3 3.6 2.6c0.6 0.5 1.4 1.1 2.3 1.1 0.9 0 1.7-0.6 2.3-1.1q1.7-1.3 3.6-2.6 0.3-0.3 0.5-0.6zm0-8.2c0 0.7-0.7 1.6-1.2 2q-1.7 1.2-3.4 2.4c-0.4 0.4-1.2 1.1-1.8 1.1-0.6 0-1.4-0.7-1.8-1.1q-1.7-1.2-3.4-2.4c-0.8-0.6-1.2-1.4-1.2-2.3 0-0.1 0.1-0.2 0.2-0.2h12.4c0.3 0 0.2 0.3 0.2 0.5zm1.1-0.3c0-0.6-0.6-1.2-1.3-1.2h-12.4c-0.7 0-1.3 0.6-1.3 1.2v8.5c0 0.7 0.6 1.3 1.3 1.3h12.4c0.7 0 1.3-0.6 1.3-1.3z"/></svg>