<svg version="1.2" xmlns="http://www.w3.org/2000/svg" viewBox="0 0 12 20" width="12" height="20"><style>.a{fill:#555}</style><path class="a" d="m7.2 18c0 0.7-0.5 1.2-1.2 1.2-0.7 0-1.3-0.5-1.3-1.2 0-0.7 0.6-1.3 1.3-1.3 0.7 0 1.2 0.6 1.2 1.3zm3.3-2.5c0 0.3-0.2 0.5-0.5 0.5h-8c-0.3 0-0.5-0.2-0.5-0.5v-11c0-0.3 0.2-0.5 0.5-0.5h8c0.3 0 0.5 0.2 0.5 0.5zm-3-13.3c0 0.2-0.1 0.3-0.3 0.3h-2.5c-0.1 0-0.2-0.1-0.2-0.3 0-0.1 0.1-0.2 0.2-0.2h2.5c0.2 0 0.3 0.1 0.3 0.2zm4.5-0.2c0-1.1-0.9-2-2-2h-8c-1.1 0-2 0.9-2 2v16c0 1.1 0.9 2 2 2h8c1.1 0 2-0.9 2-2z"/></svg>