<svg version="1.2" xmlns="http://www.w3.org/2000/svg" viewBox="0 0 17 16" width="17" height="16"><style>.a{fill:#fff}</style><path class="a" d="m1.6 3.8q0 1.9 1.3 2.7c0.7 0.5 1.6 0.6 2 0.6q0.2 0 0.2-0.1c0 0-0.1 0.9 0.6 1.8h-0.1c-1.1 0-4.9 0.2-4.9 3.2 0 3 3.5 3.2 4.2 3.2q0.1 0 0.1 0 0 0 0.1 0c0.4 0 1.6-0.1 2.7-0.6q2-1 2-3.3c0-1.6-1-2.5-1.8-3.1-0.5-0.4-0.9-0.8-0.9-1.1 0-0.4 0.3-0.6 0.7-0.9 0.6-0.6 1.2-1.3 1.2-2.8 0-1.2-0.2-2.1-1.2-2.6 0.1 0 0.5-0.1 0.6-0.1 0.6-0.1 1.4-0.2 1.4-0.6v-0.1h-4.1c0 0-4.1 0.1-4.1 3.8zm6.6 7.7c0.1 1.3-1 2.1-2.6 2.3-1.6 0.1-3-0.6-3.1-1.8 0-0.6 0.3-1.2 0.8-1.7 0.5-0.4 1.2-0.7 2-0.7q0.2-0.1 0.3-0.1c1.5 0 2.5 0.9 2.6 2zm-1.1-8.5c0.4 1.3-0.2 2.7-1.1 3q-0.2 0.1-0.4 0.1c-0.9 0-1.7-0.9-2.1-2.1q-0.2-1 0.1-1.8c0.2-0.6 0.5-1 1-1.1q0.2 0 0.3 0c1.1 0 1.8 0.4 2.2 1.9zm6.9 2.9v-2.6h-1.6v2.6h-2.7v1.7h2.7v2.5h1.6v-2.5h2.7v-1.7z"/></svg>