<svg version="1.2" xmlns="http://www.w3.org/2000/svg" viewBox="0 0 17 14" width="17" height="14"><style>.a{fill:#fff}</style><path class="a" d="m16 1.1q-1 0.5-2.1 0.7c-0.6-0.6-1.5-1-2.4-1-1.8 0-3.3 1.5-3.3 3.2q0 0.4 0.1 0.8c-2.7-0.2-5.1-1.4-6.8-3.4q-0.4 0.7-0.4 1.6c0 1.1 0.6 2.1 1.5 2.7q-0.9-0.1-1.5-0.4c0 1.6 1.1 2.9 2.6 3.1q-0.4 0.2-0.9 0.2-0.3 0-0.6-0.1c0.4 1.3 1.6 2.2 3.1 2.2-1.1 0.9-2.6 1.4-4.1 1.4q-0.4 0-0.8-0.1c1.5 0.9 3.2 1.5 5.1 1.5 6 0 9.3-4.9 9.3-9.1v-0.4q0.9-0.7 1.6-1.7-0.9 0.4-1.9 0.5c0.7-0.4 1.2-1 1.5-1.7z"/></svg>